<?xml version="1.0" encoding="iso-8859-1"?>
<!-- Uploaded to: SVG Repo, www.svgrepo.com, Generator: SVG Repo Mixer Tools -->
<svg fill="#000000" height="800px" width="800px" version="1.1" id="Layer_1" xmlns="http://www.w3.org/2000/svg" xmlns:xlink="http://www.w3.org/1999/xlink" 
	 viewBox="0 0 388.499 388.499" xml:space="preserve">
<g>
	<g>
		<g>
			<path d="M235.095,41.05c-5.505-2.28-11.839-1.019-16.051,3.193l-66.749,66.748H83.257C37.349,110.992,0,148.341,0,194.25
				c0,45.908,37.349,83.257,83.257,83.257h69.038l66.749,66.748c4.218,4.219,10.555,5.47,16.051,3.193
				c5.504-2.28,9.092-7.651,9.092-13.608V54.658C244.187,48.701,240.599,43.33,235.095,41.05z M143.411,248.05H83.257
				c-29.665,0-53.8-24.135-53.8-53.8c0-29.666,24.135-53.801,53.8-53.801h60.154V248.05z M214.73,298.283l-41.862-41.861V132.077
				l41.862-41.861V298.283z"/>
			<path d="M350.794,194.249l33.311-33.311c5.858-5.858,5.858-15.355,0-21.213c-5.858-5.858-15.355-5.858-21.213,0l-33.311,33.311
				l-33.311-33.311c-5.858-5.858-15.355-5.858-21.213,0c-5.858,5.858-5.858,15.355,0,21.213l33.311,33.311l-33.311,33.311
				c-5.858,5.858-5.858,15.355,0,21.213c5.858,5.858,15.355,5.858,21.213,0l33.311-33.311l33.311,33.311
				c5.858,5.858,15.355,5.858,21.213,0c5.858-5.858,5.858-15.355,0-21.213L350.794,194.249z"/>
		</g>
	</g>
</g>
</svg>